HIERARCHY
ROOT Pelvis
{
	OFFSET 0.000000 0.000000 0.000000
	CHANNELS 6 Xposition Yposition Zposition Xrotation Yrotation Zrotation
	JOINT LeftUpLeg_virtual
	{
		OFFSET 0.000000 0.000000 0.000000
		CHANNELS 3 Xrotation Yrotation Zrotation
		JOINT LeftUpLeg
		{
			OFFSET 8.479700 -4.795502 -0.379100
			CHANNELS 3 Xrotation Yrotation Zrotation
			JOINT LeftLeg
			{
				OFFSET 0.024144 -32.555107 0.112900
				CHANNELS 3 Xrotation Yrotation Zrotation
				JOINT LeftFoot
				{
					OFFSET -0.024144 -32.638630 -3.012600
					CHANNELS 3 Xrotation Yrotation Zrotation
					JOINT LeftToeBase
					{
						OFFSET 0.970200 -13.225400 11.864200
						CHANNELS 3 Xrotation Yrotation Zrotation
						End Site
						{
							OFFSET 0 0 0
						}
					}
				}
			}
		}
	}
	JOINT RightUpLeg_virtual
	{
		OFFSET 0.000000 0.000000 0.000000
		CHANNELS 3 Xrotation Yrotation Zrotation
		JOINT RightUpLeg
		{
			OFFSET -8.479700 -4.795502 -0.379100
			CHANNELS 3 Xrotation Yrotation Zrotation
			JOINT RightLeg
			{
				OFFSET -0.023144 -32.555092 0.112900
				CHANNELS 3 Xrotation Yrotation Zrotation
				JOINT RightFoot
				{
					OFFSET 0.023144 -32.638641 -3.012700
					CHANNELS 3 Xrotation Yrotation Zrotation
					JOINT RightToeBase
					{
						OFFSET -0.970200 -13.225400 11.864200
						CHANNELS 3 Xrotation Yrotation Zrotation
						End Site
						{
							OFFSET 0 0 0
						}
					}
				}
			}
		}
	}
	JOINT Hips_virtual
	{
		OFFSET 0.000000 0.000000 0.000000
		CHANNELS 3 Xrotation Yrotation Zrotation
		JOINT Hips
		{
			OFFSET -0.000000 -0.000000 -0.000000
			CHANNELS 3 Xrotation Yrotation Zrotation
			JOINT Spine
			{
				OFFSET 0.000000 7.722000 1.166200
				CHANNELS 3 Xrotation Yrotation Zrotation
				JOINT Spine1
				{
					OFFSET 0.000000 12.024101 0.248800
					CHANNELS 3 Xrotation Yrotation Zrotation
					JOINT Spine2
					{
						OFFSET 0.000000 11.502998 -0.491200
						CHANNELS 3 Xrotation Yrotation Zrotation
						JOINT Neck_virtual
						{
							OFFSET 0.000000 0.000000 0.000000
							CHANNELS 3 Xrotation Yrotation Zrotation
							JOINT Neck
							{
								OFFSET 0.000000 18.430702 -3.123100
								CHANNELS 3 Xrotation Yrotation Zrotation
								JOINT Head
								{
									OFFSET 0.000000 9.051102 1.034000
									CHANNELS 3 Xrotation Yrotation Zrotation
									End Site
									{
										OFFSET 0 0 0
									}
								}
							}
						}
						JOINT LeftShoulder_virtual
						{
							OFFSET 0.000000 0.000000 0.000000
							CHANNELS 3 Xrotation Yrotation Zrotation
							JOINT LeftShoulder
							{
								OFFSET 6.197800 13.665199 -4.064700
								CHANNELS 3 Xrotation Yrotation Zrotation
								JOINT LeftArm
								{
									OFFSET 7.778100 -0.187103 -1.709300
									CHANNELS 3 Xrotation Yrotation Zrotation
									JOINT LeftForeArm
									{
										OFFSET 22.049376 0.000000 0.000000
										CHANNELS 3 Xrotation Yrotation Zrotation
										JOINT LeftHand
										{
											OFFSET 23.009392 0.000000 0.000000
											CHANNELS 3 Xrotation Yrotation Zrotation
											End Site
											{
												OFFSET 0 0 0
											}
										}
									}
								}
							}
						}
						JOINT RightShoulder_virtual
						{
							OFFSET 0.000000 0.000000 0.000000
							CHANNELS 3 Xrotation Yrotation Zrotation
							JOINT RightShoulder
							{
								OFFSET -6.197800 13.665199 -4.064700
								CHANNELS 3 Xrotation Yrotation Zrotation
								JOINT RightArm
								{
									OFFSET -7.778100 -0.187103 -1.709300
									CHANNELS 3 Xrotation Yrotation Zrotation
									JOINT RightForeArm
									{
										OFFSET -22.049376 0.000000 0.000000
										CHANNELS 3 Xrotation Yrotation Zrotation
										JOINT RightHand
										{
											OFFSET -23.009392 0.000000 0.000000
											CHANNELS 3 Xrotation Yrotation Zrotation
											End Site
											{
												OFFSET 0 0 0
											}
										}
									}
								}
							}
						}
					}
				}
			}
		}
	}
}
MOTION
Frames: 12
Frame Time: 0.03333333
-0.042470 81.789688 0.378487 0.000000 0.000000 0.000000 -3.660829 3.318452 2.264736 -2.334207 8.368328 3.285046 15.435806 3.904073 0.701658 -8.839840 0.450077 -3.890950 0.000000 0.000000 0.000000 -3.660829 3.318452 2.264736 -3.513636 -11.731652 -9.995095 17.552275 -4.975265 -1.290777 -9.429302 -1.913722 8.676553 0.000000 0.000000 0.000000 -3.660829 3.318452 2.264736 0.000000 0.000000 0.000000 4.352448 -0.758965 -0.604561 1.013959 -0.170731 0.054478 0.000000 0.000000 0.000000 1.013874 -0.177046 0.069540 0.942214 -0.544783 0.126542 0.000000 0.000000 0.000000 1.013874 -0.177046 0.069540 0.674921 -2.078744 -16.856782 4.778422 -6.136924 -37.933867 0.000051 -66.118936 0.000076 0.000000 0.000000 0.000000 1.013874 -0.177046 0.069540 0.088521 8.205041 21.087104 -3.899878 6.709552 55.252593 0.000004 9.850080 -0.000026 0.000000 0.000000 0.000000 
-0.037691 81.790497 0.393883 0.000000 0.000000 0.000000 -3.661140 3.401766 2.290642 -2.339518 8.385025 3.274435 15.444875 3.844871 0.666564 -8.844567 0.451158 -3.819245 0.000000 0.000000 0.000000 -3.661140 3.401766 2.290642 -3.476823 -11.731419 -10.013472 17.539405 -5.059752 -1.290801 -9.443949 -1.921302 8.699731 0.000000 0.000000 0.000000 -3.661140 3.401766 2.290642 0.000000 0.000000 0.000000 4.297200 -0.724088 -0.619605 1.003490 -0.162740 0.054478 0.000000 0.000000 0.000000 1.003401 -0.169834 0.069539 0.967347 -0.361658 0.089158 0.000000 0.000000 0.000000 1.003401 -0.169834 0.069539 0.668923 -2.098531 -16.857006 4.777333 -6.116302 -37.949368 0.000052 -66.118963 0.000072 0.000000 0.000000 0.000000 1.003401 -0.169834 0.069539 0.189313 8.114529 20.696774 -3.948094 6.617984 55.456966 -0.000002 9.661276 0.000020 0.000000 0.000000 0.000000 
-0.032849 81.791702 0.410078 0.000000 0.000000 0.000000 -3.666627 3.495946 2.320488 -2.323334 8.394241 3.254831 15.419697 3.781080 0.640957 -8.831896 0.450607 -3.777668 0.000000 0.000000 0.000000 -3.666627 3.495946 2.320488 -3.429784 -11.731264 -10.033455 17.523644 -5.151749 -1.290803 -9.459498 -1.933481 8.724705 0.000000 0.000000 0.000000 -3.666627 3.495946 2.320488 0.000000 0.000000 0.000000 4.243274 -0.692074 -0.631584 0.993090 -0.154234 0.054478 0.000000 0.000000 0.000000 0.993004 -0.161422 0.069539 0.993620 -0.171604 0.051404 0.000000 0.000000 0.000000 0.993004 -0.161422 0.069539 0.669283 -2.097340 -16.856989 4.776129 -6.115301 -37.967748 0.000036 -66.105269 0.000041 0.000000 0.000000 0.000000 0.993004 -0.161422 0.069539 0.288256 8.054238 20.313281 -4.008388 6.518863 55.627151 0.000002 9.463820 -0.000013 0.000000 0.000000 0.000000 
-0.024618 81.793533 0.426912 0.000000 0.000000 0.000000 -3.673618 3.600226 2.359724 -2.294735 8.397058 3.217637 15.375698 3.718686 0.622374 -8.810681 0.449585 -3.737988 0.000000 0.000000 0.000000 -3.673618 3.600226 2.359724 -3.380095 -11.730955 -10.064663 17.508020 -5.251285 -1.290809 -9.475601 -1.949720 8.754874 0.000000 0.000000 0.000000 -3.673618 3.600226 2.359724 -0.000001 0.000000 0.000000 4.190111 -0.661108 -0.640721 0.983113 -0.144932 0.054478 0.000000 0.000000 0.000000 0.983032 -0.152244 0.066660 1.021000 0.026481 0.013595 0.000000 0.000000 0.000000 0.983032 -0.152244 0.066660 0.672029 -2.087341 -16.865545 4.773022 -6.120773 -37.983454 0.000024 -66.086144 0.000042 0.000000 0.000000 0.000000 0.983032 -0.152244 0.066660 0.391141 7.989680 19.911496 -4.059861 6.438545 55.791601 -0.000001 9.308321 -0.000019 0.000000 0.000000 0.000000 
-0.012854 81.795723 0.445452 0.000000 0.000000 0.000000 -3.679749 3.707370 2.403400 -2.265291 8.393651 3.167847 15.333597 3.664817 0.608666 -8.792327 0.449398 -3.687507 0.000000 0.000000 0.000000 -3.679749 3.707370 2.403400 -3.328253 -11.730621 -10.103696 17.488974 -5.351002 -1.290814 -9.491208 -1.969224 8.787317 0.000000 0.000000 0.000000 -3.679749 3.707370 2.403400 0.000000 0.000000 0.000000 4.136226 -0.629120 -0.645820 0.973502 -0.135125 0.054479 0.000000 0.000000 0.000000 0.973426 -0.142599 0.063642 1.049471 0.229842 -0.024775 0.000000 0.000000 0.000000 0.973426 -0.142599 0.063642 0.674783 -2.075989 -16.886593 4.763883 -6.120304 -37.993269 0.000027 -66.070667 0.000040 0.000000 0.000000 0.000000 0.973426 -0.142599 0.063642 0.496742 7.917478 19.494029 -4.102384 6.374798 55.961410 0.000001 9.187384 -0.000011 0.000000 0.000000 0.000000 
-0.004188 81.797150 0.467594 0.000000 0.000000 0.000000 -3.698775 3.825723 2.444573 -2.227741 8.385588 3.124766 15.301017 3.605747 0.596017 -8.779831 0.448773 -3.640085 0.000000 0.000000 0.000000 -3.698775 3.825723 2.444573 -3.254296 -11.730424 -10.134005 17.468245 -5.461348 -1.290832 -9.511717 -1.990889 8.819839 0.000000 0.000000 0.000000 -3.698775 3.825723 2.444573 0.000000 0.000000 0.000000 4.079837 -0.596998 -0.647852 0.963431 -0.125848 0.054478 0.000000 0.000000 0.000000 0.963360 -0.133434 0.060672 1.079021 0.435939 -0.064161 0.000000 0.000000 0.000000 0.963360 -0.133434 0.060672 0.676296 -2.067980 -16.914796 4.749167 -6.105761 -37.999109 0.000029 -66.064848 0.000053 0.000000 0.000000 0.000000 0.963360 -0.133434 0.060672 0.607327 7.827264 19.047704 -4.127412 6.342296 56.153219 0.000003 9.128162 0.000011 0.000000 0.000000 0.000000 
0.007801 81.799271 0.490177 0.000000 0.000000 0.000000 -3.706966 3.952031 2.486493 -2.187570 8.377358 3.079789 15.238951 3.543651 0.581796 -8.751864 0.442301 -3.614136 0.000000 0.000000 0.000000 -3.706966 3.952031 2.486493 -3.186179 -11.728088 -10.166941 17.438417 -5.577737 -1.288061 -9.526482 -2.012495 8.855914 0.000000 0.000000 0.000000 -3.706966 3.952031 2.486493 0.000000 0.000000 0.000000 4.020324 -0.568099 -0.647578 0.952045 -0.118682 0.054478 0.000000 0.000000 0.000000 0.951977 -0.126079 0.058449 1.115015 0.642656 -0.104923 0.000000 0.000000 0.000000 0.951977 -0.126079 0.058449 0.674335 -2.062278 -16.938410 4.733430 -6.075014 -38.009019 0.000026 -66.063516 0.000029 0.000000 0.000000 0.000000 0.951977 -0.126079 0.058449 0.722518 7.728452 18.567237 -4.161882 6.358282 56.391500 -0.000000 9.076888 0.000005 0.000000 0.000000 0.000000 
0.019258 81.800217 0.510757 0.000000 0.000000 0.000000 -3.717129 4.093756 2.532580 -2.176207 8.366550 3.034036 15.227937 3.460268 0.564510 -8.745872 0.437782 -3.541273 0.000000 0.000000 0.000000 -3.717129 4.093756 2.532580 -3.121163 -11.724975 -10.203075 17.421627 -5.710092 -1.285326 -9.548500 -2.033475 8.895011 0.000000 0.000000 0.000000 -3.717129 4.093756 2.532580 0.000000 0.000000 0.000000 3.959914 -0.545423 -0.641393 0.939746 -0.114587 0.054479 0.000000 0.000000 0.000000 0.939684 -0.121878 0.056770 1.156356 0.848693 -0.147246 0.000000 0.000000 0.000000 0.939684 -0.121878 0.056770 0.673554 -2.056964 -16.946727 4.721899 -6.032067 -38.030650 0.000011 -66.064014 0.000012 0.000000 0.000000 0.000000 0.939684 -0.121878 0.056770 0.838653 7.629911 18.069610 -4.212549 6.404049 56.658332 0.000003 9.006536 -0.000009 0.000000 0.000000 0.000000 
0.031803 81.800278 0.530466 0.000000 0.000000 0.000000 -3.721225 4.240604 2.582715 -2.161583 8.352309 2.982538 15.196899 3.378726 0.548586 -8.728523 0.432533 -3.493490 0.000000 0.000000 0.000000 -3.721225 4.240604 2.582715 -3.069569 -11.721388 -10.245743 17.416970 -5.849192 -1.282608 -9.575298 -2.052229 8.936926 0.000000 0.000000 0.000000 -3.721225 4.240604 2.582715 0.000000 0.000000 0.000000 3.901594 -0.527460 -0.632164 0.927811 -0.111797 0.054478 0.000000 0.000000 0.000000 0.927752 -0.118905 0.055078 1.200912 1.053522 -0.186200 0.000000 0.000000 0.000000 0.927752 -0.118905 0.055078 0.674241 -2.050013 -16.937582 4.716803 -5.983031 -38.063900 0.000008 -66.065920 -0.000004 0.000000 0.000000 0.000000 0.927752 -0.118905 0.055078 0.954705 7.546253 17.552311 -4.274646 6.486530 56.965991 0.000005 8.960765 -0.000007 0.000000 0.000000 0.000000 
0.048855 81.797661 0.549376 0.000000 0.000000 0.000000 -3.706892 4.387671 2.638853 -2.173726 8.334483 2.917634 15.183236 3.297967 0.536214 -8.719736 0.427159 -3.446297 0.000000 0.000000 0.000000 -3.706892 4.387671 2.638853 -3.055773 -11.717090 -10.304461 17.441960 -5.989094 -1.279850 -9.613628 -2.068296 8.984911 0.000000 0.000000 0.000000 -3.706892 4.387671 2.638853 0.000000 0.000001 0.000000 3.850462 -0.517569 -0.617009 0.917879 -0.109572 0.054478 0.000000 0.000000 0.000000 0.917821 -0.116510 0.053550 1.248877 1.254983 -0.222584 0.000000 0.000000 0.000000 0.917821 -0.116510 0.053550 0.675293 -2.042199 -16.917943 4.717784 -5.931966 -38.100636 0.000002 -66.068666 -0.000000 0.000000 0.000000 0.000000 0.917821 -0.116510 0.053550 1.069659 7.471439 17.025817 -4.301210 6.572039 57.286036 -0.000004 9.036274 0.000021 0.000000 0.000000 0.000000 
0.065122 81.795952 0.564840 0.000000 0.000000 0.000000 -3.704049 4.550118 2.689293 -2.189879 8.311568 2.858699 15.187098 3.211507 0.528511 -8.714953 0.423755 -3.386701 0.000000 0.000000 0.000000 -3.704049 4.550118 2.689293 -3.018610 -11.712129 -10.351015 17.449824 -6.152728 -1.277143 -9.643133 -2.078554 9.034666 0.000000 0.000000 0.000000 -3.704049 4.550118 2.689293 0.000000 0.000000 0.000000 3.806556 -0.502390 -0.592398 0.909464 -0.107326 0.054479 0.000000 0.000000 0.000000 0.909407 -0.114606 0.052360 1.291622 1.448898 -0.255177 0.000000 0.000000 0.000000 0.909407 -0.114606 0.052360 0.675617 -2.034076 -16.896817 4.724272 -5.879880 -38.130508 0.000062 -66.073775 0.000073 0.000000 0.000000 0.000000 0.909407 -0.114606 0.052360 1.182843 7.409096 16.491289 -4.213240 6.632025 57.602284 -0.000003 9.450964 0.000019 0.000000 0.000000 0.000000 
0.081129 81.794693 0.578638 0.000000 0.000000 0.000000 -3.705998 4.719234 2.737212 -2.207208 8.283890 2.800348 15.196802 3.128869 0.526150 -8.710627 0.420716 -3.326358 0.000000 0.000000 0.000000 -3.705998 4.719234 2.737212 -2.969700 -11.695924 -10.389922 17.449924 -6.342922 -1.274441 -9.668006 -2.082094 9.087699 0.000000 0.000000 0.000000 -3.705998 4.719234 2.737212 0.000000 0.000000 0.000000 3.766035 -0.484437 -0.563572 0.901723 -0.105021 0.054478 0.000000 0.000000 0.000000 0.901668 -0.112975 0.051686 1.332362 1.640280 -0.286350 0.000000 0.000000 0.000000 0.901668 -0.112975 0.051686 0.674425 -2.024122 -16.879347 4.735006 -5.826430 -38.149356 0.000022 -66.094320 0.000018 0.000000 0.000000 0.000000 0.901668 -0.112975 0.051686 1.294703 7.353242 15.952795 -3.959961 6.634152 57.889582 -0.000007 10.312903 0.000020 0.000000 0.000000 0.000000 
